<svg width="30" height="30" viewBox="0 0 30 30" fill="none" xmlns="http://www.w3.org/2000/svg">
<path d="M29.7012 12C29.1012 10.2 27.3011 9 25.501 9C22.9509 9 21.0008 10.95 21.0008 13.5C21.0008 15.45 22.2009 17.1 24.0009 17.7V20.25C24.0009 24 21.0008 27 17.2507 27C13.5005 27 10.5004 24 10.5004 20.25V19.35C14.8506 18.6 18.0007 14.85 18.0007 10.5V1.5C18.0007 0.6 17.4007 0 16.5007 0H13.5005C12.6005 0 12.0005 0.6 12.0005 1.5C12.0005 2.4 12.6005 3 13.5005 3H15.0006V10.5C15.0006 13.8 12.3005 16.5 9.00036 16.5C5.70023 16.5 3.00012 13.8 3.00012 10.5V3H4.50018C5.40021 3 6.00024 2.4 6.00024 1.5C6.00024 0.6 5.40021 0 4.50018 0H1.50006C0.600024 0 0 0.6 0 1.5V10.5C0 14.85 3.15012 18.6 7.5003 19.35V20.25C7.5003 25.65 11.8505 30 17.2507 30C22.6509 30 27.0011 25.65 27.0011 20.25V17.7C29.4012 16.95 30.6012 14.4 29.7012 12Z" fill="white"/>
</svg>
